<svg
  xmlns="http://www.w3.org/2000/svg"
  viewBox="0 0 2600 2000"
  role="img"
  aria-label="Plant 1 first floor — process and utility mezzanine"
  class="fps-root"
>
  <defs>
    <filter id="drop-shadow" x="-10%" y="-10%" width="130%" height="130%">
      <feDropShadow dx="3" dy="6" stdDeviation="5" flood-color="var(--fp-shadow)" flood-opacity="0.15"/>
    </filter>
    <filter id="light-shadow" x="-10%" y="-10%" width="130%" height="130%">
      <feDropShadow dx="2" dy="3" stdDeviation="3" flood-color="var(--fp-shadow)" flood-opacity="0.1"/>
    </filter>

    <linearGradient id="tank-grad" x1="0%" y1="0%" x2="100%" y2="100%">
      <stop offset="0%" stop-color="var(--fp-surface)"/>
      <stop offset="50%" stop-color="var(--fp-line)"/>
      <stop offset="100%" stop-color="var(--fp-ink-faint)"/>
    </linearGradient>
    <linearGradient id="pipe-grad" x1="0%" y1="0%" x2="0%" y2="100%">
      <stop offset="0%" stop-color="var(--fp-line-strong)"/>
      <stop offset="50%" stop-color="var(--fp-surface-mute)"/>
      <stop offset="100%" stop-color="var(--fp-ink-mute)"/>
    </linearGradient>
    <linearGradient id="pipe-grad-dark" x1="0%" y1="0%" x2="0%" y2="100%">
      <stop offset="0%" stop-color="var(--fp-ink-faint)"/>
      <stop offset="50%" stop-color="var(--fp-line-strong)"/>
      <stop offset="100%" stop-color="var(--fp-ink-mute)"/>
    </linearGradient>

    <pattern id="cooling-grid" width="24" height="24" patternUnits="userSpaceOnUse">
      <rect x="0" y="0" width="24" height="24" fill="var(--fp-line)" stroke="var(--fp-line-strong)" stroke-width="1.5"/>
      <circle cx="12" cy="12" r="7.5" fill="var(--fp-ink-mute)" />
      <circle cx="12" cy="12" r="3" fill="var(--fp-ink)" />
    </pattern>
    <pattern id="transformer-coil" width="16" height="16" patternUnits="userSpaceOnUse">
      <rect x="0" y="0" width="16" height="16" fill="var(--fp-line)" stroke="var(--fp-ink-faint)" stroke-width="1"/>
      <line x1="0" y1="4" x2="16" y2="4" stroke="var(--fp-ink-mute)" stroke-width="2"/>
      <line x1="0" y1="12" x2="16" y2="12" stroke="var(--fp-ink-mute)" stroke-width="2"/>
    </pattern>
    <pattern id="workshop-roof" width="30" height="30" patternTransform="rotate(45 0 0)" patternUnits="userSpaceOnUse">
      <rect x="0" y="0" width="30" height="30" fill="var(--fp-surface-mute)" />
      <line x1="0" y1="0" x2="0" y2="30" stroke="var(--fp-line)" stroke-width="4" />
      <rect x="10" y="10" width="10" height="10" fill="var(--fp-surface)" opacity="0.8"/>
    </pattern>
    <pattern id="catwalk-grating" width="6" height="6" patternTransform="rotate(45 0 0)" patternUnits="userSpaceOnUse">
      <line x1="0" y1="0" x2="0" y2="6" stroke="var(--fp-line-strong)" stroke-width="1" />
      <line x1="0" y1="0" x2="6" y2="0" stroke="var(--fp-line-strong)" stroke-width="1" />
    </pattern>
    <pattern id="stockpile-hatch" width="18" height="18" patternTransform="rotate(45 0 0)" patternUnits="userSpaceOnUse">
      <rect x="0" y="0" width="18" height="18" fill="var(--fp-line)" />
      <line x1="0" y1="0" x2="0" y2="18" stroke="var(--fp-line-strong)" stroke-width="4.5" />
    </pattern>

    <style>
    .fps-root {
      --fp-canvas: transparent;
      --fp-surface: var(--surface-card);
      --fp-surface-mute: color-mix(in srgb, var(--surface-panel) 75%, transparent);
      --fp-panel: var(--surface-panel);
      --fp-panel-soft: color-mix(in srgb, var(--surface-card) 80%, transparent);
      --fp-line: var(--border-muted);
      --fp-line-strong: var(--border-default);
      --fp-ink: var(--text-primary);
      --fp-ink-mute: var(--text-secondary);
      --fp-ink-faint: var(--text-muted);
      --fp-accent: var(--accent-selection);
      --fp-accent-soft: color-mix(in srgb, var(--accent-selection) 22%, transparent);
      --fp-hot: color-mix(in srgb, var(--status-blocking) 55%, var(--status-elevated) 45%);
      --fp-hot-soft: color-mix(in srgb, var(--status-blocking) 18%, transparent);
      --fp-success: var(--status-nominal);
      --fp-success-soft: var(--status-nominal-muted);
      --fp-warn: var(--status-elevated);
      --fp-info: var(--status-info);
      --fp-info-soft: var(--status-info-muted);
      --fp-dot: color-mix(in srgb, var(--border-muted) 55%, transparent);
      --fp-hazard: color-mix(in srgb, var(--status-elevated) 70%, transparent);
      --fp-shadow: color-mix(in srgb, var(--surface-app) 55%, transparent);
    }
    .fps-bg { fill: var(--fp-canvas); }
    .ground { fill: var(--fp-surface); stroke: var(--fp-line); stroke-width: 1.5; }
    .boundary { fill: none; stroke: var(--fp-line-strong); stroke-width: 2.5; stroke-dasharray: 12 6; }
    .road { fill: var(--fp-surface-mute); stroke: var(--fp-line); stroke-width: 1; }
    .road-mark { stroke: var(--fp-ink-faint); stroke-width: 1.5; stroke-dasharray: 20 14; opacity: 0.45; }
    .zone { fill: var(--fp-panel-soft); stroke: var(--fp-line); stroke-width: 1.5; }
    .zone-alt { fill: var(--fp-panel); stroke: var(--fp-line); stroke-width: 1.5; }
    .zone-accent { fill: var(--fp-accent-soft); stroke: var(--fp-accent); stroke-width: 1.5; }
    .zone-hot { fill: var(--fp-hot-soft); stroke: var(--fp-hot); stroke-width: 1.5; }
    .zone-cool { fill: var(--fp-info-soft); stroke: var(--fp-info); stroke-width: 1.5; }
    .zone-green { fill: var(--fp-success-soft); stroke: var(--fp-success); stroke-width: 1.5; }
    .equip { fill: color-mix(in srgb, var(--fp-surface) 70%, var(--fp-ink-faint) 8%); stroke: var(--fp-line-strong); stroke-width: 1.2; }
    .equip-hot { fill: color-mix(in srgb, var(--fp-hot) 28%, var(--fp-surface)); stroke: var(--fp-hot); stroke-width: 1.2; }
    .equip-tank { fill: color-mix(in srgb, var(--fp-info) 22%, var(--fp-surface)); stroke: var(--fp-info); stroke-width: 1.5; }
    .equip-pipe { fill: none; stroke: var(--fp-line-strong); stroke-width: 3; stroke-linecap: round; }
    .equip-pipe-thin { fill: none; stroke: var(--fp-line); stroke-width: 1.5; stroke-linecap: round; }
    .door { fill: var(--fp-accent-soft); stroke: var(--fp-accent); stroke-width: 1; }
    .window { fill: color-mix(in srgb, var(--fp-info) 20%, var(--fp-surface)); stroke: var(--fp-info); stroke-width: 0.8; }
    .label-title { fill: var(--fp-ink); font-family: var(--font-sans), system-ui, sans-serif; font-size: 9.6px; font-weight: 700; letter-spacing: 0.03em; }
    .label-sub { fill: var(--fp-ink-mute); font-family: var(--font-sans), system-ui, sans-serif; font-size: 11px; font-weight: 500; letter-spacing: 0.06em; }
    .label-tiny { fill: var(--fp-ink-faint); font-family: var(--font-mono), ui-monospace, monospace; font-size: 9px; font-weight: 500; letter-spacing: 0.04em; }
    .label-zone { fill: var(--fp-ink-mute); font-family: var(--font-sans), system-ui, sans-serif; font-size: 13px; font-weight: 600; letter-spacing: 0.08em; text-transform: uppercase; }
    .north-arrow { fill: var(--fp-ink-mute); stroke: var(--fp-ink-mute); }
    .grid-dot { fill: var(--fp-dot); }
    .hazard-hatch { stroke: var(--fp-hazard); stroke-width: 1; opacity: 0.35; }
    .asset-region { cursor: pointer; transition: opacity 0.15s ease; }
    .asset-region:hover { opacity: 0.92; }
    .asset-hit { fill: transparent; stroke: none; pointer-events: all; }
    .fps-bay { fill: var(--fp-panel); stroke: var(--fp-line); stroke-width: 1.2; }
    .fps-bay-soft { fill: var(--fp-panel-soft); stroke: var(--fp-line); stroke-width: 1.2; }
    .fps-bay-accent { fill: var(--fp-accent-soft); stroke: var(--fp-accent); stroke-width: 1.2; }
    .fps-bay-hot { fill: var(--fp-hot-soft); stroke: var(--fp-hot); stroke-width: 1.2; }
    .fps-bay-cool { fill: var(--fp-info-soft); stroke: var(--fp-info); stroke-width: 1.2; }
    .fps-bay-ok { fill: var(--fp-success-soft); stroke: var(--fp-success); stroke-width: 1.2; }
    .fps-struct { fill: color-mix(in srgb, var(--fp-surface) 75%, var(--fp-ink-faint) 6%); stroke: var(--fp-line-strong); stroke-width: 1.1; }
    .fps-struct-hot { fill: color-mix(in srgb, var(--fp-hot) 24%, var(--fp-surface)); stroke: var(--fp-hot); stroke-width: 1.1; }
    .fps-struct-cool { fill: color-mix(in srgb, var(--fp-info) 18%, var(--fp-surface)); stroke: var(--fp-info); stroke-width: 1.2; }
    .fps-pipe { fill: none; stroke: var(--fp-line-strong); stroke-width: 2.5; stroke-linecap: round; }
    .fps-pipe-thin { fill: none; stroke: var(--fp-line); stroke-width: 1.4; stroke-linecap: round; }
    .fps-pipe-accent { fill: none; stroke: var(--fp-accent); stroke-width: 2; stroke-linecap: round; opacity: 0.75; }
    .fps-label { fill: var(--fp-ink); font-family: var(--font-sans), system-ui, sans-serif; font-size: 14px; font-weight: 600; letter-spacing: 0.03em; }
    .fps-label-sm { fill: var(--fp-ink-mute); font-family: var(--font-sans), system-ui, sans-serif; font-size: 10px; font-weight: 500; letter-spacing: 0.04em; }
    .fps-label-xs { fill: var(--fp-ink-faint); font-family: var(--font-mono), ui-monospace, monospace; font-size: 8px; font-weight: 500; }

    .road-base { fill: color-mix(in srgb, var(--fp-panel) 55%, transparent); stroke: none; }
    .road-line { fill: none; stroke: var(--fp-ink-faint); stroke-width: 1.5; stroke-dasharray: 18 12; opacity: 0.5; }
    .conveyor { fill: none; stroke: var(--fp-line-strong); stroke-width: 14; stroke-linecap: round; stroke-linejoin: round; opacity: 0.55; }
    .conveyor-inner { fill: none; stroke: var(--fp-surface); stroke-width: 6; stroke-linecap: round; stroke-linejoin: round; opacity: 0.7; }
    .pipe { fill: none; stroke: var(--fp-line-strong); stroke-width: 3; stroke-linecap: round; stroke-linejoin: round; }
    .building-base { fill: var(--fp-panel); stroke: var(--fp-line-strong); stroke-width: 1.5; }
    .building-roof { fill: color-mix(in srgb, var(--fp-surface) 72%, var(--fp-ink-faint) 10%); stroke: var(--fp-line); stroke-width: 1; }
    .equipment { fill: color-mix(in srgb, var(--fp-surface) 65%, var(--fp-ink-faint) 12%); stroke: var(--fp-line-strong); stroke-width: 1.1; }
    .tank { fill: color-mix(in srgb, var(--fp-info) 20%, var(--fp-surface)); stroke: var(--fp-info); stroke-width: 1.4; }
    .label-bg { fill: color-mix(in srgb, var(--surface-app) 72%, transparent); stroke: none; }
    .label-title { font-size: 9.6px; font-weight: 700; letter-spacing: 0.03em; }
    .highlight-zone { fill: transparent; stroke: none; pointer-events: none; }
    .gantry { fill: color-mix(in srgb, var(--fp-surface) 72%, var(--fp-ink-faint) 10%); stroke: var(--fp-line-strong); stroke-width: 2; }
    .gantry-inner { fill: none; stroke: var(--fp-line); stroke-width: 1.5; stroke-dasharray: 6,6; opacity: 0.7; }
    .pipe-dark { fill: none; stroke: var(--fp-line-strong); stroke-width: 3; stroke-linejoin: round; opacity: 0.8; }

  </style>
  </defs>

  <g id="master-scale-group" transform="scale(1.5)">
    
    <g id="plant-boundary" transform="translate(-40, -40) scale(1.08)">
      <path class="boundary" d="M 40,80 L 1450,40 L 1570,300 L 1520,1100 L 1200,1170 L 60,1160 Z" />
      <rect x="0" y="0" width="1800" height="1400" fill="url(#stockpile-hatch)" opacity="0.03" pointer-events="none"/>
    </g>

    <g id="road-network">
      <path class="road-base" d="M 70,70 L 1450,50 L 1550,280 L 1500,1080 L 1200,1180 L 90,1180 Z" />
      <path class="road-line" d="M 70,70 L 1450,50 L 1550,280 L 1500,1080 L 1200,1180 L 90,1180 Z" />

      <path class="road-base" d="M 450,75 L 450,1150 M 880,75 L 880,1120 M 70,450 L 880,450 M 450,830 L 1470,830" />
      <path class="road-line" d="M 450,75 L 450,1150 M 880,75 L 880,1120 M 70,450 L 880,450 M 450,830 L 1470,830" />

      <path class="road-base" d="M 70,1100 L 450,1100 M 1150,70 L 1150,450 M 1150,450 L 1450,450" />
      <path class="road-line" d="M 70,1100 L 450,1100 M 1150,70 L 1150,450 M 1150,450 L 1450,450" />
      
      <line x1="1250" y1="420" x2="1350" y2="420" stroke="var(--fp-surface)" stroke-width="2" stroke-dasharray="4,4" />
      <line x1="1250" y1="480" x2="1350" y2="480" stroke="var(--fp-surface)" stroke-width="2" stroke-dasharray="4,4" />
    </g>

    <g id="asset-pipe-rack-gantry" transform="translate(0, 0)">
      <rect class="gantry" x="350" y="450" width="800" height="40" />
      <line class="gantry-inner" x1="350" y1="455" x2="1150" y2="455" />
      <line class="gantry-inner" x1="350" y1="485" x2="1150" y2="485" />
      
      <rect class="gantry" x="480" y="250" width="40" height="200" />
      <rect class="gantry" x="780" y="490" width="40" height="300" />
      <rect class="gantry" x="980" y="250" width="40" height="200" />

      <path class="pipe" d="M 360,460 L 1140,460" stroke-width="4" />
      <path class="pipe-dark" d="M 360,470 L 1140,470" stroke-width="3" />
      <path class="pipe" d="M 360,480 L 1140,480" stroke-width="5" />
      
      <path class="pipe" d="M 495,260 L 495,460" stroke-width="4" />
      <path class="pipe-dark" d="M 505,260 L 505,470" stroke-width="3" />
      
      <path class="pipe" d="M 790,490 L 790,780" stroke-width="4" />
      <path class="pipe-dark" d="M 800,490 L 800,780" stroke-width="3" />
      <path class="pipe" d="M 810,490 L 810,780" stroke-width="5" />
      
      <path class="pipe" d="M 995,260 L 995,460" stroke-width="4" />
      <path class="pipe-dark" d="M 1005,260 L 1005,470" stroke-width="3" />

      <rect class="label-bg" x="650" y="430" width="160" height="22" />
      <text class="label-title" x="660" y="446" font-size="9.6px">PIPE RACK GANTRY</text>
      <rect class="highlight-zone" x="330" y="230" width="840" height="580" />
    </g>

    <g id="asset-gas-cleaning-plant" transform="translate(80, -40)">
      <rect class="building-base" x="120" y="140" width="300" height="280" />
      
      <rect x="140" y="190" width="120" height="180" rx="60" ry="60" fill="var(--fp-line-strong)" stroke="var(--fp-line-strong)" stroke-width="2"/>
      
      <circle class="tank" cx="200" cy="220" r="45" />
      <circle class="tank" cx="200" cy="340" r="45" />
      
      <circle cx="200" cy="220" r="24" fill="none" stroke="var(--fp-surface)" stroke-width="2" opacity="0.6"/>
      <circle cx="200" cy="340" r="24" fill="none" stroke="var(--fp-surface)" stroke-width="2" opacity="0.6"/>
      <circle class="equipment" cx="200" cy="220" r="12" />
      <circle class="equipment" cx="200" cy="340" r="12" />
      
      <g transform="translate(280, 160)">
        <rect class="building-roof" x="0" y="0" width="120" height="60" />
        <rect class="equipment" x="10" y="10" width="20" height="40" />
        <rect class="equipment" x="90" y="10" width="20" height="40" />
        <line x1="40" y1="30" x2="80" y2="30" stroke="var(--fp-line-strong)" stroke-width="2" />
      </g>
      <g transform="translate(280, 240)">
        <rect class="building-roof" x="0" y="0" width="120" height="60" />
        <rect class="equipment" x="10" y="10" width="20" height="40" />
        <rect class="equipment" x="90" y="10" width="20" height="40" />
        <line x1="40" y1="30" x2="80" y2="30" stroke="var(--fp-line-strong)" stroke-width="2" />
      </g>
      <g transform="translate(280, 320)">
        <rect class="building-roof" x="0" y="0" width="120" height="60" />
        <rect class="equipment" x="10" y="10" width="20" height="40" />
        <rect class="equipment" x="90" y="10" width="20" height="40" />
        <line x1="40" y1="30" x2="80" y2="30" stroke="var(--fp-line-strong)" stroke-width="2" />
      </g>
      
      <circle class="tank" cx="150" cy="280" r="25" />
      <circle cx="150" cy="280" r="15" fill="var(--fp-ink-mute)" />
      <line x1="125" y1="280" x2="175" y2="280" stroke="var(--fp-ink-mute)" stroke-width="1" />
      <line x1="150" y1="255" x2="150" y2="305" stroke="var(--fp-ink-mute)" stroke-width="1" />

      <path class="pipe-dark" d="M 200,220 L 280,190 M 200,220 L 280,270 M 200,340 L 280,270 M 200,340 L 280,350" stroke-width="3"/>
      <path class="pipe" d="M 160,260 L 200,260 L 200,300 M 180,280 L 240,280 L 240,340" />

      <rect class="label-bg" x="126" y="380" width="170" height="22" />
      <text class="label-title" x="136" y="396" font-size="9.6px">GAS CLEANING PLANT</text>
      <rect class="highlight-zone" x="120" y="140" width="300" height="280" />
    </g>

    <g id="asset-boiler-house" transform="translate(560, -40)">
      <rect class="building-base" x="120" y="140" width="360" height="280" />
      
      <rect x="135" y="155" width="330" height="250" fill="url(#catwalk-grating)" opacity="0.5" />
      
      <rect class="tank" x="150" y="170" width="120" height="220" rx="6" ry="6" />
      <rect class="tank" x="320" y="170" width="120" height="220" rx="6" ry="6" />
      
      <circle cx="210" cy="220" r="15" fill="var(--fp-ink-mute)" />
      <circle cx="210" cy="220" r="10" fill="var(--fp-ink)" />
      <circle cx="210" cy="300" r="15" fill="var(--fp-ink-mute)" />
      <circle cx="210" cy="300" r="10" fill="var(--fp-ink)" />
      
      <circle cx="380" cy="220" r="15" fill="var(--fp-ink-mute)" />
      <circle cx="380" cy="220" r="10" fill="var(--fp-ink)" />
      <circle cx="380" cy="300" r="15" fill="var(--fp-ink-mute)" />
      <circle cx="380" cy="300" r="10" fill="var(--fp-ink)" />
      
      <rect class="equipment" x="160" y="185" width="100" height="25" rx="12" ry="12" fill="var(--fp-line-strong)" stroke="var(--fp-ink-mute)" stroke-width="2" />
      <rect class="equipment" x="330" y="185" width="100" height="25" rx="12" ry="12" fill="var(--fp-line-strong)" stroke="var(--fp-ink-mute)" stroke-width="2" />
      <path class="pipe" d="M 210,185 L 210,150 L 380,150 L 380,185" stroke-width="4" />
      <path class="pipe" d="M 295,150 L 295,140" stroke-width="6" /> <rect class="equipment" x="200" y="340" width="20" height="30" />
      <rect class="equipment" x="370" y="340" width="20" height="30" />
      <rect class="building-roof" x="250" y="160" width="40" height="40" />
      <rect class="building-roof" x="250" y="240" width="40" height="40" />
      <rect class="building-roof" x="250" y="320" width="40" height="40" />

      <rect class="label-bg" x="126" y="380" width="126" height="22" />
      <text class="label-title" x="136" y="396" font-size="9.6px">BOILER HOUSE</text>
      <rect class="highlight-zone" x="120" y="140" width="360" height="280" />
    </g>

    <g id="asset-electrical-substation" transform="translate(-40, 520)">
      <rect class="building-base" x="120" y="140" width="320" height="320" fill="var(--fp-surface)" />
      <rect x="125" y="145" width="310" height="310" fill="none" stroke="var(--fp-ink-faint)" stroke-width="2" stroke-dasharray="4,4" />

      <g transform="translate(160, 180)">
        <rect class="equipment" x="0" y="0" width="80" height="80" fill="url(#transformer-coil)" />
        <rect class="equipment" x="-10" y="10" width="10" height="60" /> <rect class="equipment" x="80" y="10" width="10" height="60" />
      </g>
      <g transform="translate(300, 180)">
        <rect class="equipment" x="0" y="0" width="80" height="80" fill="url(#transformer-coil)" />
        <rect class="equipment" x="-10" y="10" width="10" height="60" />
        <rect class="equipment" x="80" y="10" width="10" height="60" />
      </g>
      <g transform="translate(160, 320)">
        <rect class="equipment" x="0" y="0" width="80" height="80" fill="url(#transformer-coil)" />
        <rect class="equipment" x="-10" y="10" width="10" height="60" />
        <rect class="equipment" x="80" y="10" width="10" height="60" />
      </g>
      <g transform="translate(300, 320)">
        <rect class="equipment" x="0" y="0" width="80" height="80" fill="url(#transformer-coil)" />
        <rect class="equipment" x="-10" y="10" width="10" height="60" />
        <rect class="equipment" x="80" y="10" width="10" height="60" />
      </g>

      <path class="pipe-dark" d="M 200,180 L 200,165 L 340,165 L 340,180" stroke-width="2" />
      <path class="pipe-dark" d="M 200,400 L 200,415 L 340,415 L 340,400" stroke-width="2" />
      
      <rect class="building-roof" x="140" y="270" width="280" height="40" />
      <rect class="equipment" x="160" y="280" width="20" height="20" /> <rect class="equipment" x="240" y="280" width="20" height="20" />
      <rect class="equipment" x="320" y="280" width="20" height="20" />

      <line x1="200" y1="260" x2="200" y2="270" stroke="var(--fp-ink-mute)" stroke-width="4" />
      <line x1="340" y1="260" x2="340" y2="270" stroke="var(--fp-ink-mute)" stroke-width="4" />

      <rect class="label-bg" x="126" y="420" width="190" height="22" />
      <text class="label-title" x="136" y="436" font-size="9.6px">ELECTRICAL SUBSTATION</text>
      <rect class="highlight-zone" x="120" y="140" width="320" height="320" />
    </g>

    <g id="asset-pump-house" transform="translate(680, 520)">
      <rect class="building-base" x="120" y="140" width="280" height="180" />
      <rect class="building-roof" x="130" y="150" width="260" height="160" fill="none" stroke="var(--fp-line)" stroke-width="2" />
      
      <path class="pipe" d="M 135,160 L 135,300" stroke-width="8" />
      <path class="pipe-dark" d="M 365,160 L 365,300" stroke-width="6" />

      <g transform="translate(150, 170)">
        <rect class="equipment" x="0" y="0" width="90" height="30" rx="4" ry="4" /> <rect class="tank" x="10" y="5" width="40" height="20" rx="2" ry="2" /> <rect x="50" y="10" width="15" height="10" fill="var(--fp-ink-mute)" /> <circle cx="80" cy="15" r="12" fill="var(--fp-line-strong)" stroke="var(--fp-ink-mute)" stroke-width="2" /> <path class="pipe" d="M -15,15 L 10,15" stroke-width="4" />
        <path class="pipe-dark" d="M 80,15 L 215,15" stroke-width="4" />
      </g>
      <g transform="translate(150, 220)">
        <rect class="equipment" x="0" y="0" width="90" height="30" rx="4" ry="4" />
        <rect class="tank" x="10" y="5" width="40" height="20" rx="2" ry="2" />
        <rect x="50" y="10" width="15" height="10" fill="var(--fp-ink-mute)" />
        <circle cx="80" cy="15" r="12" fill="var(--fp-line-strong)" stroke="var(--fp-ink-mute)" stroke-width="2" />
        <path class="pipe" d="M -15,15 L 10,15" stroke-width="4" />
        <path class="pipe-dark" d="M 80,15 L 215,15" stroke-width="4" />
      </g>
      <g transform="translate(150, 270)">
        <rect class="equipment" x="0" y="0" width="90" height="30" rx="4" ry="4" />
        <rect class="tank" x="10" y="5" width="40" height="20" rx="2" ry="2" />
        <rect x="50" y="10" width="15" height="10" fill="var(--fp-ink-mute)" />
        <circle cx="80" cy="15" r="12" fill="var(--fp-line-strong)" stroke="var(--fp-ink-mute)" stroke-width="2" />
        <path class="pipe" d="M -15,15 L 10,15" stroke-width="4" />
        <path class="pipe-dark" d="M 80,15 L 215,15" stroke-width="4" />
      </g>

      <rect class="equipment" x="250" y="155" width="60" height="15" />

      <rect class="label-bg" x="126" y="300" width="116" height="22" />
      <text class="label-title" x="136" y="316" font-size="9.6px">PUMP HOUSE</text>
      <rect class="highlight-zone" x="120" y="140" width="280" height="180" />
    </g>

    <g id="asset-instrument-air-plant" transform="translate(360, 720)">
      <rect class="building-base" x="120" y="140" width="240" height="200" />
      
      <g transform="translate(140, 160)">
        <rect class="equipment" x="0" y="0" width="80" height="70" />
        <rect x="10" y="10" width="60" height="10" fill="var(--fp-line)" />
        <rect x="10" y="25" width="60" height="10" fill="var(--fp-line)" />
        <rect x="10" y="40" width="60" height="10" fill="var(--fp-line)" />
        <circle cx="40" cy="35" r="15" fill="none" stroke="var(--fp-ink-mute)" stroke-width="2" /> </g>
      <g transform="translate(240, 160)">
        <rect class="equipment" x="0" y="0" width="80" height="70" />
        <rect x="10" y="10" width="60" height="10" fill="var(--fp-line)" />
        <rect x="10" y="25" width="60" height="10" fill="var(--fp-line)" />
        <rect x="10" y="40" width="60" height="10" fill="var(--fp-line)" />
        <circle cx="40" cy="35" r="15" fill="none" stroke="var(--fp-ink-mute)" stroke-width="2" />
      </g>

      <rect class="tank" x="160" y="260" width="35" height="60" rx="10" ry="10" />
      <rect class="tank" x="210" y="260" width="35" height="60" rx="10" ry="10" />
      <rect class="tank" x="260" y="260" width="35" height="60" rx="10" ry="10" />
      
      <path class="pipe-dark" d="M 180,230 L 180,245 L 280,245 L 280,230" stroke-width="3" />
      <path class="pipe-dark" d="M 177,245 L 177,260 M 227,245 L 227,260 M 277,245 L 277,260" stroke-width="2" />

      <rect class="equipment" x="305" y="260" width="40" height="60" />

      <rect class="label-bg" x="126" y="320" width="190" height="22" />
      <text class="label-title" x="136" y="336" font-size="9.6px">INSTRUMENT AIR PLANT</text>
      <rect class="highlight-zone" x="120" y="140" width="240" height="200" />
    </g>

    <g id="asset-fire-water-station" transform="translate(680, 740)">
      <rect class="building-base" x="120" y="140" width="280" height="160" stroke="var(--fp-line-strong)" stroke-width="3" />
      
      <rect class="tank" x="135" y="155" width="40" height="100" rx="8" ry="8" />
      
      <g transform="translate(190, 160)">
        <rect class="tank" x="0" y="0" width="80" height="35" rx="4" ry="4" /> <rect x="15" y="5" width="50" height="25" fill="none" stroke="var(--fp-ink-mute)" stroke-width="1" /> <circle cx="100" cy="17.5" r="18" fill="var(--fp-line)" stroke="var(--fp-ink-mute)" stroke-width="3" /> <path class="pipe-dark" d="M 80,17.5 L 82,17.5" stroke-width="6" /> <path class="pipe" d="M 100,0 L 100,-20 M 118,17.5 L 180,17.5" stroke-width="5" /> </g>
      <g transform="translate(190, 230)">
        <rect class="tank" x="0" y="0" width="80" height="35" rx="4" ry="4" />
        <rect x="15" y="5" width="50" height="25" fill="none" stroke="var(--fp-ink-mute)" stroke-width="1" />
        <circle cx="100" cy="17.5" r="18" fill="var(--fp-line)" stroke="var(--fp-ink-mute)" stroke-width="3" />
        <path class="pipe-dark" d="M 80,17.5 L 82,17.5" stroke-width="6" />
        <path class="pipe" d="M 100,0 L 100,-20 M 118,17.5 L 180,17.5" stroke-width="5" />
      </g>

      <path class="pipe-dark" d="M 290,140 L 370,140" stroke-width="4" stroke-dasharray="8,4" />
      
      <rect class="label-bg" x="126" y="280" width="210" height="22" />
      <text class="label-title" x="136" y="296" font-size="9.6px">FIRE WATER PUMP STATION</text>
      <rect class="highlight-zone" x="120" y="140" width="280" height="160" />
    </g>

    <g id="asset-maintenance-workshop" transform="translate(1000, -40)">
      <rect class="building-base" x="120" y="140" width="300" height="380" />
      <rect class="building-roof" x="130" y="150" width="280" height="360" fill="url(#workshop-roof)" />
      
      <rect class="equipment" x="160" y="200" width="40" height="40" />
      <circle cx="180" cy="220" r="12" fill="var(--fp-ink-mute)" />
      <rect class="equipment" x="160" y="300" width="40" height="40" />
      <circle cx="180" cy="320" r="12" fill="var(--fp-ink-mute)" />
      <rect class="equipment" x="320" y="250" width="60" height="30" />

      <rect x="100" y="180" width="20" height="60" fill="var(--fp-surface-mute)" />
      <rect class="equipment" x="120" y="180" width="10" height="60" />
      
      <rect x="100" y="280" width="20" height="60" fill="var(--fp-surface-mute)" />
      <rect class="equipment" x="120" y="280" width="10" height="60" />
      
      <rect x="100" y="380" width="20" height="60" fill="var(--fp-surface-mute)" />
      <rect class="equipment" x="120" y="380" width="10" height="60" />

      <rect x="350" y="420" width="50" height="80" fill="none" stroke="var(--fp-line-strong)" stroke-width="2" stroke-dasharray="4,4" />
      <rect class="equipment" x="360" y="430" width="20" height="20" />
      <rect class="equipment" x="360" y="460" width="30" height="20" />

      <rect class="label-bg" x="136" y="480" width="190" height="22" />
      <text class="label-title" x="146" y="496" font-size="9.6px">MAINTENANCE WORKSHOP</text>
      <rect class="highlight-zone" x="120" y="140" width="300" height="380" />
    </g>

    <g id="asset-weighbridge" transform="translate(1000, 480)">
      <rect class="building-base" x="220" y="140" width="200" height="150" />
      <rect class="building-roof" x="230" y="150" width="180" height="130" />
      
      <rect class="equipment" x="200" y="160" width="20" height="30" fill="var(--fp-line-strong)" />
      <rect class="equipment" x="200" y="220" width="20" height="30" fill="var(--fp-line-strong)" />
      <line x1="160" y1="155" x2="190" y2="155" stroke="var(--fp-ink-mute)" stroke-width="2" />
      <line x1="160" y1="195" x2="190" y2="195" stroke="var(--fp-ink-mute)" stroke-width="2" />
      <line x1="160" y1="215" x2="190" y2="215" stroke="var(--fp-ink-mute)" stroke-width="2" />
      <line x1="160" y1="255" x2="190" y2="255" stroke="var(--fp-ink-mute)" stroke-width="2" />
      
      <rect x="90" y="360" width="30" height="40" fill="var(--fp-line)" />
      <rect x="360" y="360" width="30" height="40" fill="var(--fp-line)" />
      <rect x="90" y="420" width="30" height="40" fill="var(--fp-line)" />
      <rect x="360" y="420" width="30" height="40" fill="var(--fp-line)" />

      <rect class="equipment" x="120" y="360" width="240" height="40" fill="var(--fp-surface-mute)" stroke="var(--fp-ink-mute)" stroke-width="2" />
      <line x1="120" y1="370" x2="360" y2="370" stroke="var(--fp-line-strong)" stroke-width="2" />
      <line x1="120" y1="390" x2="360" y2="390" stroke="var(--fp-line-strong)" stroke-width="2" />
      
      <rect class="equipment" x="120" y="420" width="240" height="40" fill="var(--fp-surface-mute)" stroke="var(--fp-ink-mute)" stroke-width="2" />
      <line x1="120" y1="430" x2="360" y2="430" stroke="var(--fp-line-strong)" stroke-width="2" />
      <line x1="120" y1="450" x2="360" y2="450" stroke="var(--fp-line-strong)" stroke-width="2" />
      
      <rect class="building-roof" x="200" y="390" width="40" height="40" rx="4" ry="4" />
      <rect class="equipment" x="180" y="405" width="15" height="10" /> <circle cx="195" cy="385" r="2" fill="var(--fp-ink-mute)" />
      <circle cx="245" cy="385" r="2" fill="var(--fp-ink-mute)" />
      <circle cx="195" cy="435" r="2" fill="var(--fp-ink-mute)" />
      <circle cx="245" cy="435" r="2" fill="var(--fp-ink-mute)" />

      <rect class="label-bg" x="126" y="470" width="236" height="22" />
      <text class="label-title" x="136" y="486" font-size="9.6px">WEIGHBRIDGE &amp; LOADING DOCK</text>
      <rect class="highlight-zone" x="110" y="130" width="320" height="370" />
    </g>

  </g>
</svg>
